<?xml version="1.0" standalone="no"?>
<!DOCTYPE svg PUBLIC "-//W3C//DTD SVG 20010904//EN"
 "http://www.w3.org/TR/2001/REC-SVG-20010904/DTD/svg10.dtd">
<svg version="1.0" xmlns="http://www.w3.org/2000/svg"
 width="360.000000pt" height="360.000000pt" viewBox="0 0 360.000000 360.000000"
 preserveAspectRatio="xMidYMid meet">
<metadata>
Created by potrace 1.14, written by Peter Selinger 2001-2017
</metadata>
<g transform="translate(0.000000,360.000000) scale(0.100000,-0.100000)"
fill="#000000" stroke="none">
<path d="M1325 3401 c-60 -17 -118 -35 -129 -41 -14 -9 -20 -9 -26 0 -11 17
-100 -17 -108 -41 -4 -10 -41 -42 -84 -71 -128 -89 -180 -132 -263 -219 -110
-115 -128 -138 -189 -232 -92 -142 -112 -197 -120 -332 -2 -33 -1 -38 1 -11 6
73 95 189 215 282 103 80 97 79 418 78 268 -1 344 -6 502 -36 l57 -10 64 -127
c35 -69 68 -137 72 -151 4 -14 19 -49 33 -79 44 -97 70 -176 63 -193 -10 -27
-224 -241 -297 -298 -11 -8 -53 -42 -94 -75 -93 -76 -282 -213 -335 -245 -36
-21 -57 -24 -225 -32 -256 -11 -428 -25 -471 -38 -20 -5 -56 -29 -80 -53 -79
-75 -110 -99 -125 -93 -8 3 -14 1 -14 -4 0 -26 43 -3 119 64 75 65 90 74 145
84 34 7 83 13 110 14 l50 2 17 -104 c18 -114 35 -171 80 -268 16 -35 29 -66
29 -70 0 -4 17 -25 38 -48 20 -22 32 -33 26 -25 -30 43 -68 144 -85 225 -10
49 -17 92 -15 94 2 2 13 -25 25 -60 12 -35 37 -89 56 -121 19 -32 35 -61 36
-65 1 -12 108 -102 121 -102 7 0 4 6 -5 13 -26 19 -84 155 -112 262 -26 100
-34 165 -14 116 5 -13 25 -50 44 -81 19 -32 35 -64 35 -72 0 -20 41 -150 51
-163 4 -6 22 -37 39 -70 37 -71 59 -97 73 -88 5 3 7 2 4 -4 -3 -5 8 -23 26
-39 48 -44 176 -128 184 -121 3 4 1 7 -5 7 -46 0 -153 157 -191 280 -21 66
-22 97 -2 40 14 -42 88 -145 138 -193 40 -39 116 -87 137 -87 6 1 -5 9 -24 19
-38 21 -67 49 -96 95 l-18 29 39 -25 c53 -33 85 -50 85 -44 0 2 -21 17 -47 32
-106 62 -172 146 -217 276 -14 42 -26 83 -26 91 0 9 -18 33 -40 55 -28 29 -38
47 -35 63 3 12 0 28 -6 35 -6 8 -9 19 -6 26 3 9 7 6 12 -7 5 -11 19 -34 32
-52 22 -31 25 -31 43 -16 15 13 17 21 9 37 -6 12 4 4 21 -16 36 -43 66 -49 73
-15 2 12 5 3 6 -20 1 -29 -3 -43 -11 -43 -17 1 -42 21 -54 43 -8 14 -10 11
-10 -16 0 -27 6 -37 29 -50 36 -21 54 -21 65 -1 12 21 -3 97 -27 146 -16 32
-16 38 -4 38 11 0 13 3 5 13 -17 21 -9 107 13 123 10 8 23 14 28 14 12 0 3
-116 -11 -133 -18 -24 -22 -46 -6 -40 20 7 63 73 104 160 24 49 40 71 49 67
11 -3 11 -2 2 10 -10 12 -7 20 17 45 27 28 50 42 38 23 -2 -4 0 -14 6 -22 8
-13 9 -13 5 1 -3 9 -1 22 4 30 7 11 9 10 9 -6 0 -11 -3 -31 -7 -43 -4 -18 -8
-20 -14 -10 -6 8 -7 1 -3 -17 6 -34 -43 -154 -78 -192 -12 -13 -17 -23 -12
-23 5 0 28 28 51 63 40 59 57 92 83 164 7 17 21 40 33 50 l21 18 -17 -27 c-19
-30 -16 -34 13 -18 16 9 19 8 13 -7 -3 -10 -17 -34 -31 -53 l-25 -35 26 24
c30 27 35 18 11 -19 -9 -14 3 -6 25 17 23 24 44 56 47 73 7 31 30 58 41 46 4
-3 20 6 36 21 25 24 28 25 18 6 -17 -33 -13 -113 8 -159 32 -71 47 -66 42 13
-1 18 2 40 8 50 9 16 11 14 17 -14 3 -18 10 -30 15 -27 5 3 9 -2 9 -10 0 -19
31 -29 64 -20 27 6 29 14 26 74 -1 29 1 33 12 22 7 -8 13 -34 12 -62 0 -38 -6
-56 -24 -75 -31 -34 -70 -34 -70 -1 0 14 -4 27 -9 30 -4 3 -6 -6 -3 -19 2 -14
-2 -32 -9 -41 -10 -13 -10 -17 2 -25 79 -50 177 81 153 202 -6 27 -7 46 -2 41
5 -5 13 -31 17 -58 l7 -49 14 42 c7 23 17 40 21 37 5 -3 9 9 9 25 0 24 4 31
20 31 17 0 20 -7 21 -47 6 -250 -30 -407 -119 -523 l-34 -45 41 45 c53 58 92
135 122 243 22 82 39 111 39 68 0 -42 -22 -180 -40 -256 -43 -174 -92 -287
-151 -345 -24 -24 -35 -39 -24 -33 69 37 172 182 205 288 7 22 21 51 31 65 58
84 107 248 116 394 l6 109 20 -49 c17 -44 19 -67 14 -209 -6 -177 -27 -277
-74 -350 -22 -34 -23 -37 -5 -21 23 20 62 116 87 213 8 34 18 126 21 205 9
234 33 341 83 368 37 19 100 12 124 -14 46 -50 71 -116 72 -192 0 -67 -3 -75
-37 -125 -21 -30 -58 -78 -83 -106 -39 -44 -52 -53 -80 -53 -36 0 -56 -21 -54
-57 0 -15 2 -14 9 5 8 17 17 22 48 22 36 0 40 -2 52 -40 7 -22 17 -40 21 -40
16 0 81 -64 100 -99 14 -26 18 -29 13 -11 -3 14 -20 40 -38 58 -23 25 -26 31
-11 25 43 -17 95 -59 104 -83 5 -14 10 -18 10 -9 1 22 -67 108 -100 125 -16 8
-37 14 -49 14 -11 0 -20 4 -20 8 0 14 28 66 47 87 31 35 83 113 83 124 0 6 4
11 9 11 5 0 12 12 15 26 4 15 25 42 46 62 22 19 40 42 40 49 0 8 4 12 8 9 15
-9 62 122 77 217 16 101 18 208 5 277 -7 35 -8 28 -4 -36 3 -45 1 -117 -3
-160 l-8 -79 -6 145 c-4 80 -12 179 -18 220 -20 137 -21 145 -5 87 9 -32 19
-56 21 -53 3 3 -3 35 -12 71 -12 45 -21 62 -27 53 -5 -8 -6 -3 -2 13 3 16 -1
39 -11 59 -9 17 -14 37 -12 44 8 19 -11 108 -27 125 -7 9 -17 26 -20 38 -7 22
-6 22 54 -6 34 -16 81 -33 104 -36 42 -7 115 -60 166 -120 43 -50 83 -91 75
-75 -5 9 -4 12 1 7 5 -5 9 -12 9 -15 0 -4 18 -43 40 -87 41 -82 51 -144 31
-190 -8 -17 -7 -18 5 -7 18 17 17 146 -1 223 -15 64 -61 159 -101 210 -16 20
-29 40 -29 43 0 3 41 6 90 6 94 0 130 -11 173 -51 12 -10 23 -19 27 -19 3 0
24 -24 48 -54 77 -99 102 -193 65 -246 -15 -22 -15 -24 -1 -12 47 38 46 126
-2 243 -15 38 -24 69 -19 69 20 0 128 -120 139 -156 7 -22 10 -61 7 -96 -7
-77 -38 -124 -92 -140 -25 -7 -34 -13 -23 -15 24 -6 94 35 114 65 9 14 20 37
24 52 9 31 -9 142 -29 178 -75 139 -232 287 -381 362 -25 12 -57 31 -72 42
-16 11 -33 16 -39 12 -7 -4 -9 -3 -6 3 7 11 -133 71 -186 78 -17 3 5 -8 51
-24 85 -30 122 -50 67 -36 -16 4 -68 10 -115 14 -47 4 -96 13 -109 21 -17 9
-46 11 -100 6 -63 -6 -74 -5 -63 6 8 8 53 15 125 19 l112 6 -95 1 c-52 1 -110
-2 -128 -7 -30 -9 -33 -8 -48 22 -56 110 -88 148 -161 193 -97 61 -251 127
-371 159 -87 24 -119 27 -312 31 -213 4 -216 4 -325 -25z m1124 -315 c-3 -3
-11 5 -18 17 -13 21 -12 21 5 5 10 -10 16 -20 13 -22z m66 -122 c17 -41 20
-67 5 -44 -5 8 -10 11 -10 7 0 -5 -5 -5 -11 -1 -7 4 -7 10 -1 16 12 12 4 40
-9 32 -5 -3 -6 2 -3 10 9 23 12 20 29 -20z m419 -29 c165 -44 331 -154 443
-292 52 -63 42 -71 -13 -10 -21 23 -42 41 -46 39 -5 -1 -8 5 -8 13 0 8 -3 15
-7 15 -5 0 -21 11 -37 25 -16 14 -34 25 -40 25 -6 0 -28 11 -48 25 -23 15 -43
22 -54 18 -11 -4 -15 -3 -10 5 8 14 -50 46 -66 36 -7 -4 -8 -3 -4 4 4 7 5 12
2 12 -2 0 -12 3 -22 7 -11 4 -15 3 -10 -5 5 -8 -1 -8 -24 -1 -16 6 -28 15 -24
20 3 5 -9 6 -25 3 -17 -4 -38 -3 -48 0 -15 6 -15 8 -3 16 13 8 12 10 -2 10
-10 0 -18 -4 -18 -10 0 -5 -7 -7 -15 -4 -8 4 -23 0 -32 -7 -15 -12 -16 -12
-10 4 5 13 1 17 -21 18 -24 0 -25 1 -7 9 18 8 17 9 -7 9 -15 1 -31 7 -35 15
-4 8 -17 16 -28 20 -11 3 21 4 70 1 50 -2 117 -11 149 -20z m266 -187 c27 -18
48 -34 46 -36 -2 -1 -19 7 -39 20 -19 13 -43 28 -53 35 -11 6 -15 12 -11 12 5
1 30 -13 57 -31z m-615 -338 c4 -6 11 -8 16 -4 6 3 8 -4 5 -18 -3 -12 -8 -40
-11 -61 -7 -46 -25 -87 -37 -87 -5 0 -6 11 -2 25 4 16 2 25 -6 25 -9 0 -10 15
-5 58 4 31 9 60 12 65 6 10 21 9 28 -3z m-122 -12 c-4 -7 -8 -18 -9 -25 -3
-18 -41 -56 -53 -52 -5 2 6 23 25 47 34 40 54 56 37 30z m177 -3 c11 6 30 -59
29 -95 l-1 -25 -8 25 c-8 25 -8 24 -9 -5 -1 -21 -4 -26 -10 -16 -7 11 -10 10
-14 -5 -2 -10 -5 17 -5 61 0 44 2 74 5 67 2 -6 9 -10 13 -7z m-249 -18 c-10
-9 -11 -8 -5 6 3 10 9 15 12 12 3 -3 0 -11 -7 -18z m104 -37 c-14 -32 -21 -38
-42 -34 -15 3 -22 1 -18 -6 3 -5 1 -10 -4 -10 -18 0 -13 9 29 52 22 23 40 47
41 53 0 5 3 4 6 -3 3 -8 -3 -31 -12 -52z m32 28 c-3 -8 -6 -5 -6 6 -1 11 2 17
5 13 3 -3 4 -12 1 -19z m-26 -75 c-12 -20 -14 -14 -5 12 4 9 9 14 11 11 3 -2
0 -13 -6 -23z m202 -243 c2 -186 -10 -251 -59 -306 -36 -40 -43 -34 -21 19 38
89 67 298 62 447 -2 84 -1 89 7 45 6 -27 11 -120 11 -205z m-847 92 c1 -26 6
-72 10 -102 6 -46 8 -51 15 -30 6 19 7 15 6 -18 -2 -37 -5 -44 -27 -48 -14 -3
-42 -9 -62 -14 -37 -8 -46 -3 -29 15 18 21 42 114 54 210 3 26 17 48 25 40 3
-3 7 -27 8 -53z m249 -10 c-3 -7 -1 -11 4 -8 11 7 21 -28 21 -74 0 -20 4 -40
8 -45 12 -13 -10 -211 -24 -226 -7 -6 -21 -8 -33 -4 -19 6 -21 14 -22 83 -2
82 -3 94 -12 157 -5 27 -2 48 8 65 8 14 14 19 15 12 0 -19 19 -5 19 16 1 9 1
35 2 57 1 40 1 40 10 10 5 -16 7 -36 4 -43z m74 -99 c29 -94 65 -272 56 -281
-2 -2 -7 13 -10 34 -6 36 -64 269 -80 322 -4 12 -5 22 -2 22 3 0 19 -44 36
-97z m-242 15 c-2 -13 -4 -3 -4 22 0 25 2 35 4 23 2 -13 2 -33 0 -45z m-210
10 c-3 -8 -6 -5 -6 6 -1 11 2 17 5 13 3 -3 4 -12 1 -19z m150 -10 c-3 -7 -5
-2 -5 12 0 14 2 19 5 13 2 -7 2 -19 0 -25z m-175 -16 c-7 -2 -10 -7 -8 -11 3
-4 -1 -8 -9 -8 -10 0 -11 5 -4 19 6 10 15 15 22 11 8 -5 8 -8 -1 -11z m33 -1
c3 -5 2 -12 -3 -15 -5 -3 -9 1 -9 9 0 17 3 19 12 6z m285 -59 l0 -26 -16 22
c-8 12 -12 27 -9 32 10 17 25 1 25 -28z m-53 -4 c-3 -7 -5 -2 -5 12 0 14 2 19
5 13 2 -7 2 -19 0 -25z m-10 -48 c4 -12 7 -11 14 5 7 16 8 14 4 -8 -4 -19 -2
-26 5 -22 6 4 10 -7 10 -28 l0 -34 -35 16 c-19 9 -34 19 -35 24 0 11 38 8 43
-3 3 -6 4 -5 3 2 -1 7 -12 14 -23 16 -19 3 -19 6 -9 50 8 36 12 41 14 22 2
-14 5 -32 9 -40z m-333 42 c3 -5 -1 -9 -9 -9 -8 0 -12 4 -9 9 3 4 7 8 9 8 2 0
6 -4 9 -8z m42 -27 c-3 -8 -2 -15 3 -15 4 0 8 -7 8 -14 0 -22 -51 -40 -74 -27
-17 10 -17 11 2 9 44 -3 53 2 48 23 -3 11 -11 18 -19 15 -7 -3 -16 0 -20 6 -4
6 -3 8 2 5 6 -3 16 -2 24 4 22 13 33 11 26 -6z m227 -16 c7 -25 -8 -31 -64
-27 l-44 4 45 22 c56 27 56 27 63 1z m-173 -4 c-7 -8 -18 -15 -24 -14 -7 0 -6
2 2 6 6 2 10 9 6 14 -3 5 2 9 12 9 13 0 14 -3 4 -15z m-154 -4 c-4 -5 0 -11 6
-14 8 -2 9 -8 4 -13 -5 -5 -11 -4 -13 4 -3 6 -10 9 -16 5 -7 -4 -6 1 2 10 14
18 26 23 17 8z m-30 -56 c8 -8 22 -12 32 -9 14 5 14 4 3 -4 -8 -6 -22 -7 -30
-3 -9 5 -22 6 -28 4 -7 -3 -13 2 -13 11 0 20 17 21 36 1z m59 5 c3 -6 -1 -7
-9 -4 -18 7 -21 14 -7 14 6 0 13 -4 16 -10z m-118 -30 c0 -18 -6 -30 -14 -30
-7 0 -13 -5 -13 -12 0 -6 -3 -8 -7 -4 -5 4 1 14 11 22 11 8 14 14 8 14 -9 0
-9 5 0 20 7 11 13 20 14 20 0 0 1 -13 1 -30z m38 -30 c-3 -5 -12 -10 -18 -10
-7 0 -6 4 3 10 19 12 23 12 15 0z m235 -24 c0 -3 -4 -8 -10 -11 -5 -3 -10 -1
-10 4 0 6 5 11 10 11 6 0 10 -2 10 -4z m-654 -890 c7 -8 19 -16 26 -19 7 -2
11 -7 8 -10 -3 -3 -19 5 -35 18 -17 13 -26 24 -22 25 5 0 15 -6 23 -14z"/>
<path d="M2051 2044 c0 -11 3 -14 6 -6 3 7 2 16 -1 19 -3 4 -6 -2 -5 -13z"/>
<path d="M412 2350 c0 -19 2 -27 5 -17 2 9 2 25 0 35 -3 9 -5 1 -5 -18z"/>
<path d="M2722 2300 c0 -19 2 -27 5 -17 2 9 2 25 0 35 -3 9 -5 1 -5 -18z"/>
<path d="M3062 2305 c0 -16 2 -22 5 -12 2 9 2 23 0 30 -3 6 -5 -1 -5 -18z"/>
<path d="M422 2285 c0 -11 4 -31 8 -45 6 -20 8 -21 8 -5 0 11 -4 31 -8 45 -6
20 -8 21 -8 5z"/>
<path d="M442 2190 c0 -14 2 -19 5 -12 2 6 2 18 0 25 -3 6 -5 1 -5 -13z"/>
<path d="M456 2126 c6 -41 54 -179 60 -173 2 2 -6 30 -17 63 -12 32 -28 79
-35 104 -14 45 -14 45 -8 6z"/>
<path d="M1028 2153 c6 -2 18 -2 25 0 6 3 1 5 -13 5 -14 0 -19 -2 -12 -5z"/>
<path d="M968 2143 c7 -3 16 -2 19 1 4 3 -2 6 -13 5 -11 0 -14 -3 -6 -6z"/>
<path d="M525 1922 c5 -19 -5 -37 -53 -95 -59 -72 -182 -248 -182 -261 0 -4
-13 -26 -28 -49 -40 -59 -47 -71 -35 -64 5 3 34 46 64 94 71 118 141 216 232
328 23 28 24 32 10 50 -15 19 -15 19 -8 -3z"/>
<path d="M2354 1898 l-19 -23 23 19 c12 11 22 21 22 23 0 8 -8 2 -26 -19z"/>
<path d="M2330 1866 c0 -11 30 -39 36 -34 2 3 -5 13 -16 23 -11 10 -20 15 -20
11z"/>
<path d="M2416 1855 c-11 -8 -15 -15 -9 -15 6 0 16 7 23 15 16 19 11 19 -14 0z"/>
<path d="M2322 1820 c0 -14 2 -19 5 -12 2 6 2 18 0 25 -3 6 -5 1 -5 -13z"/>
<path d="M1348 1740 c-15 -10 -19 -41 -5 -40 4 0 10 0 13 0 4 0 1 7 -6 15 -10
12 -10 15 4 15 9 0 16 5 16 10 0 12 -1 12 -22 0z"/>
<path d="M2481 1694 c0 -11 3 -14 6 -6 3 7 2 16 -1 19 -3 4 -6 -2 -5 -13z"/>
<path d="M2370 1640 c0 -5 5 -10 11 -10 5 0 7 5 4 10 -3 6 -8 10 -11 10 -2 0
-4 -4 -4 -10z"/>
<path d="M2461 1627 c-13 -21 -12 -21 5 -5 10 10 16 20 13 22 -3 3 -11 -5 -18
-17z"/>
<path d="M2337 1578 c-25 -26 -40 -69 -28 -81 6 -6 17 6 30 32 12 23 29 41 39
42 14 0 14 2 2 6 -8 3 -17 9 -20 13 -3 3 -13 -2 -23 -12z"/>
<path d="M2410 1590 c-9 -6 -10 -10 -3 -10 6 0 15 5 18 10 8 12 4 12 -15 0z"/>
<path d="M1815 1520 c-3 -5 -25 -15 -48 -22 -53 -15 -80 -46 -38 -43 24 1 101
52 101 65 0 13 -7 13 -15 0z"/>
<path d="M2406 1275 c15 -109 127 -352 206 -449 24 -29 61 -66 83 -81 31 -21
28 -16 -17 24 -98 89 -201 279 -259 481 -13 44 -17 52 -13 25z"/>
<path d="M1068 1251 c12 -12 27 -19 32 -16 6 3 10 1 10 -5 0 -6 14 -2 31 10
38 28 33 33 -18 22 -26 -6 -47 -6 -59 1 -15 7 -14 5 4 -12z"/>
<path d="M1187 1159 c-8 -28 1 -47 27 -61 20 -10 20 -10 -2 11 -16 16 -20 29
-16 46 3 14 4 25 1 25 -2 0 -7 -9 -10 -21z"/>
<path d="M2170 1123 c0 -25 -248 -293 -271 -293 -4 0 -21 -13 -40 -29 -18 -16
-60 -42 -93 -57 -72 -33 -71 -33 -65 -38 8 -9 94 35 145 74 l52 39 19 -22 c27
-30 47 -65 66 -113 l16 -41 -47 -45 c-53 -51 -117 -96 -181 -127 -36 -17 -61
-21 -131 -20 -73 1 -92 -2 -116 -19 -16 -11 -53 -25 -83 -31 -71 -15 -187 -79
-234 -130 -38 -41 -77 -140 -91 -229 l-6 -42 205 0 c113 0 205 3 205 8 -1 4
-7 18 -15 32 -20 36 -20 167 1 211 9 19 35 64 57 100 31 52 48 69 74 77 40 12
41 9 8 -30 -14 -16 -25 -36 -25 -44 0 -8 -4 -14 -9 -14 -5 0 -21 -35 -36 -77
-20 -58 -28 -103 -30 -173 l-4 -95 9 80 c8 81 44 220 61 241 7 8 27 5 77 -12
37 -13 76 -23 87 -23 11 0 0 7 -25 15 -57 19 -120 46 -120 51 0 14 54 72 63
66 6 -3 7 -1 3 5 -7 12 2 14 51 15 12 0 20 3 18 7 -6 10 43 23 55 15 5 -3 11
3 14 13 4 10 42 48 85 84 76 63 79 65 89 45 l11 -22 0 22 c1 24 -36 127 -55
157 -12 17 -7 27 34 80 44 56 62 83 118 171 37 60 65 117 60 123 -3 3 -6 0 -6
-5z"/>
<path d="M858 993 c7 -3 16 -2 19 1 4 3 -2 6 -13 5 -11 0 -14 -3 -6 -6z"/>
<path d="M1460 965 c13 -7 31 -10 42 -7 35 9 26 17 -20 18 -42 2 -44 1 -22
-11z"/>
<path d="M1344 861 c3 -4 40 -23 83 -41 43 -19 111 -51 151 -72 39 -21 82 -38
95 -37 21 1 21 1 -3 8 -14 5 -65 29 -115 53 -49 25 -112 53 -138 63 -26 10
-50 22 -53 26 -3 5 -10 9 -15 9 -6 0 -8 -4 -5 -9z"/>
<path d="M1293 743 c9 -2 25 -2 35 0 9 3 1 5 -18 5 -19 0 -27 -2 -17 -5z"/>
<path d="M2767 699 l33 -21 -63 -41 c-83 -55 -154 -129 -217 -226 -29 -45 -57
-81 -61 -81 -5 0 -9 -4 -9 -9 0 -5 -19 -42 -41 -82 -42 -74 -82 -119 -167
-186 -26 -20 -51 -41 -56 -45 -6 -4 310 -8 702 -8 l712 0 0 38 c0 31 -6 43
-30 60 -32 24 -46 52 -104 205 -66 170 -148 249 -380 362 l-79 39 -46 -16
c-25 -9 -59 -15 -76 -13 -16 1 -22 0 -12 -2 25 -6 21 -20 -10 -37 -16 -8 -40
-25 -55 -38 -15 -13 -58 -47 -95 -76 -38 -29 -97 -85 -133 -124 -36 -40 -89
-97 -118 -127 l-53 -56 68 110 c37 61 77 121 88 135 54 68 157 160 215 193 52
29 60 37 39 37 -14 0 -34 7 -45 15 -10 8 -23 14 -29 15 -5 0 5 -10 22 -21z
m586 -387 c-2 -6 6 -14 17 -17 11 -4 20 -13 20 -20 0 -8 8 -19 18 -25 14 -10
13 -11 -8 -6 -14 3 -28 6 -32 6 -5 0 -8 6 -8 14 0 7 -11 22 -25 32 -31 23 -32
31 -2 29 12 -2 21 -7 20 -13z m54 -106 c26 -31 30 -51 8 -42 -8 3 -15 1 -15
-4 0 -6 5 -10 10 -10 6 0 10 -4 10 -9 0 -5 -13 -9 -29 -9 -26 1 -31 6 -42 46
-7 24 -21 52 -32 62 -19 18 -18 18 23 6 24 -7 54 -25 67 -40z"/>
<path d="M2008 527 c-3 -19 -2 -25 4 -19 6 6 8 18 6 28 -3 14 -5 12 -10 -9z"/>
<path d="M2375 304 c-40 -14 -40 -14 -5 -9 19 3 39 10 44 15 12 12 11 12 -39
-6z"/>
<path d="M2210 270 c-34 -7 -34 -7 -5 -8 17 0 39 3 50 8 24 10 4 10 -45 0z"/>
<path d="M1870 232 c6 -13 14 -21 18 -18 3 4 -2 14 -12 24 -18 16 -18 16 -6
-6z"/>
<path d="M2034 218 c-16 -18 -20 -26 -9 -18 37 27 59 50 49 50 -6 0 -23 -14
-40 -32z"/>
</g>
</svg>
